<svg xmlns="http://www.w3.org/2000/svg" viewBox="0 0 442 394.37"><defs><style>.cls-1{fill:#b79815;}.cls-1,.cls-5,.cls-6,.cls-7,.cls-8{fill-rule:evenodd;}.cls-2,.cls-7{fill:#ddb407;}.cls-3{fill:#dbb30f;}.cls-4{fill:#f4cc21;}.cls-5{fill:#c6a310;}.cls-6{fill:#e0c34b;}.cls-8{fill:#e5cf73;}</style></defs><g id="Layer_3" data-name="Layer 3"><path class="cls-1" d="M223,12a49.31,49.31,0,0,1-4-12s28,19,41,17a16.78,16.78,0,0,1-3-12s12,18,17,19c0,0,13,4,30-4,0,0,2,6-7,17,0,0,19,9,34,9,0,0-12,4-19,6,0,0,19,16,36,12,0,0-4,4-14,12s36,23,36,23-7,3-25,4c0,0,13,24,30,27,0,0-11,5-21,4,0,0,18,32,30,34a32.55,32.55,0,0,1-13,3s13,32,28,33c0,0-4,8-21,9,0,0,6,19,21,25H385s13,36,27,41c0,0-11,2-20,0,0,0,12,34,27,35,0,0-5,3-14,3,0,0,9,28,26,32,0,0-4,4-16,3,0,0,14,28,27,29,0,0-5,5-17,4l4,3s-13,3-29-3c0,0-5,4-20,4,0,0,7-3,3-8,0,0-21,10-33,10,0,0,0-8-14-8l5,6s-18,0-25-8c0,0,3,4-15,7,0,0,5-4,5-6,0,0-10,7-26,7,0,0,2-7-8-8,0,0-5,5-20,10,0,0,10-5,6-10,0,0-33,16-42,13,0,0,17-4,19-10,0,0-16,7-30,8,0,0-1-12-9-12,0,0-13,12-24,14,0,0,0-10-17-13,0,0-13,10-28,10,0,0,14-9,5-10,0,0-22,15-36,13,0,0,18-7,14-13,0,0-15,7-26,8,0,0,2-4-1-7,0,0-14,9-20,9,0,0,6-6,2-10a131.79,131.79,0,0,1-20,6s4-3,3-6c0,0-11,7-19,7,0,0,1-6-2-7,0,0-3,5-11,6,0,0,4-6,2-7,0,0,1,8-18,6,0,0,12-13,15-19,0,0-1,2-6,1,0,0,17-12,18-19,0,0-5,6-12,4,0,0,10-17,12-28,0,0-2,2-9,5,0,0,14-32,12-38,0,0-10,15-17,15,0,0,17-39,15-47a28,28,0,0,1-14,12s28-42,28-53c0,0-9,7-14,7,0,0,32-43,28-57,0,0-10,10-16,13,0,0,33-50,33-63,0,0-7,6-13,8,0,0,37-41,37-51,0,0-7,6-14,4,0,0,40-29,45-38,0,0-11,3-16,3,0,0,45-20,48-24,0,0-2,3-8,1,0,0,37-4,41-7a9.79,9.79,0,0,1-7-1S218,15,223,12Z"/><path class="cls-2" d="M93.5,324.21c0-1.71.89-4.71,2.16-8.12-1.35,1.31-2.16,2.12-2.16,2.12Z"/><path class="cls-2" d="M247.5,312.21c-.24-.37-.48-.72-.73-1.06C247.5,312.48,247.5,312.21,247.5,312.21Z"/><path class="cls-2" d="M159.94,21.07c-4.68.58-7.94.93-7.94.93,4.07,1.36,6.3.41,7.31-.33A4.67,4.67,0,0,0,159.94,21.07Z"/><path class="cls-2" d="M405.16,317.47,405,317c9,0,14-3,14-3-15-1-27-35-27-35,9,2,20,0,20,0-14-5-27-41-27-41h14c-15-6-21-25-21-25,17-1,21-9,21-9-15-1-28-33-28-33a32.55,32.55,0,0,0,13-3c-12-2-30-34-30-34,10,1,21-4,21-4-17-3-30-27-30-27,18-1,25-4,25-4s-46-15-36-23,14-12,14-12c-17,4-36-12-36-12,7-2,19-6,19-6-15,0-34-9-34-9,9-11,7-17,7-17-17,8-30,4-30,4-5-1-17-19-17-19a16.78,16.78,0,0,0,3,12c-13,2-41-17-41-17a49.31,49.31,0,0,0,4,12c-5,3-37,2-37,2a9.79,9.79,0,0,0,7,1c-2.81,2.11-21.95,4.71-33.06,6.07a3.36,3.36,0,0,1-.63.6C152.87,26.83,112,45,112,45c5,0,16-3,16-3-5,9-45,38-45,38,7,2,14-4,14-4,0,10-37,51-37,51,6-2,13-8,13-8,0,13-33,63-33,63,6-3,16-13,16-13,4,14-28,57-28,57,5,0,14-7,14-7,0,11-28,53-28,53a28,28,0,0,0,14-12c2,8-15,47-15,47,4.52,0,10.29-6.25,13.81-10.68.57-1,1.14-2,1.69-3.11l.33.45c.74-1,1.17-1.66,1.17-1.66a8.05,8.05,0,0,1,.08,3.19c3.22,3.76,11.32,11.75,23.42,14,0,0-15-16-4-16,0,0,12,21,23,19,0,0-1-15,11-16,0,0-3,16,0,16s8-16,21-16c0,0-5.64,11.27-8.84,19.88,6.07-5.88,23.3-22.07,29.84-22.88,0,0,1,20,14,26,0,0-4-19,0-23,0,0,24,27,33,28,0,0-5.81-18.15-5.05-25.38a3.7,3.7,0,0,1,1.05-2.62c4-3,27,20,38,20,0,0-4-14,3-15,0,0-4,7,5,11,0,0-4-3,10-7,0,0,13.27-6.63,22.27,5.94-.65-1.21-1.9-3.72-4.27-8.94,0,0,23,6,29,18,0,0,5-4,0-15l-.25-.55c-1.1.31-1.75.55-1.75.55s-2.89-10.6,1.75-.55c5.33-1.52,21.44-4.9,27.25,7.55,0,0,1.74-9.94,8.87-13,0,0-1.87,1,4.13,13,0,0,2.29-12.21,11.15-12.11,0,0-4.15,12.11-.15,17.11s4,2,4,2-1-9,11-10,10,12,20,15c0,0-4-12,5-15,0,0-1,5,9,9,0,0-5-9,3-13a55.28,55.28,0,0,0,12,12s-4-11,0-12,11,9,18,12ZM323,300.11h0Zm1.37,0,1.22,0Zm1.81,0h0Z"/><path class="cls-2" d="M160,21l-.06.07h0Z"/><path class="cls-3" d="M247.5,312.21c-.24-.37-.48-.72-.73-1.06C247.5,312.48,247.5,312.21,247.5,312.21Z"/><path class="cls-3" d="M159.94,21.07c-4.68.58-7.94.93-7.94.93,4.07,1.36,6.3.41,7.31-.33A4.67,4.67,0,0,0,159.94,21.07Z"/><path class="cls-3" d="M160,21l-.06.07h0Z"/><path class="cls-4" d="M313.86,236.65l.68.13Z"/><path class="cls-4" d="M314.54,236.78l.67.12Z"/><path class="cls-4" d="M313.52,236.58l.34.07Z"/><path class="cls-4" d="M315.21,236.9h0Z"/><path class="cls-4" d="M315.85,237l.6.11Z"/><path class="cls-4" d="M315.25,236.91l.6.11Z"/><path class="cls-4" d="M313.2,236.52l.32.06Z"/><path class="cls-4" d="M311.66,236.24h0Z"/><path class="cls-4" d="M316.45,237.13l.54.11Z"/><path class="cls-4" d="M311.71,236.24l.34.07Z"/><path class="cls-4" d="M312.05,236.31l.31.06Z"/><path class="cls-4" d="M312.36,236.37l.22,0Z"/><path class="cls-4" d="M312.58,236.41l.62.11Z"/><path class="cls-4" d="M311.5,236.21l.16,0Z"/><path class="cls-4" d="M280.43,240.3l.15,0Z"/><path class="cls-4" d="M280.58,240.33l.93.16Z"/><path class="cls-4" d="M281.51,240.49l.16,0Z"/><path class="cls-4" d="M279,240.05l1.43.25Z"/><path class="cls-4" d="M378,213c17-1,21-9,21-9-15-1-28-33-28-33a32.55,32.55,0,0,0,13-3c-12-2-30-34-30-34,10,1,21-4,21-4-17-3-30-27-30-27,18-1,25-4,25-4s-46-15-36-23,14-12,14-12c-17,4-36-12-36-12,7-2,19-6,19-6-15,0-34-9-34-9,9-11,7-17,7-17-17,8-30,4-30,4-5-1-17-19-17-19a16.78,16.78,0,0,0,3,12c-13,2-41-17-41-17a49.31,49.31,0,0,0,4,12c-5,3-37,2-37,2a9.79,9.79,0,0,0,7,1c-2.81,2.11-21.95,4.71-33.06,6.07a3.36,3.36,0,0,1-.63.6C152.87,26.83,112,45,112,45c5,0,16-3,16-3-5,9-45,38-45,38,7,2,14-4,14-4,0,10-37,51-37,51,6-2,13-8,13-8,0,13-33,63-33,63,6-3,16-13,16-13,4,14-28,57-28,57,5,0,14-7,14-7a8.24,8.24,0,0,1-.06,1l.56-.75s-2,8,15,16c0,0,0-29,9-26,0,0,10,22,22,26,0,0-7-14,7-17,0,0,11,24,29,23,0,0-22-13,0-17l.07,0-.07,0s25,23,38,23c0,0-12-13,0-19,0,0,23,17,33,19,0,0-3-19,6-23,0,0,6,17,15,19,0,0,6-16,16-19,0,0,7,18,19,23,0,0-10-20,0-19,0,0,21,10.68,27.5,11.84,0,0-12.5-13.84-10.5-19.84,0,0,21.29,10.24,37.26,14.64-2.18-1.47-3.63-4.48-1.26-10.64l.05-.13-.05.13s16,9,27,10c0,0-5-4,8-10s24.84,12.72,45.56,14L385,238h8.6c1.42-.14,2.8-.33,4.11-.56C383.66,230.91,378,213,378,213ZM125.14,224.09l-.43.08Zm3.21-.59-.64.12Zm-1.52.28-.48.09Zm-.8.15-.78.14Zm8.17-1.49Zm-5.52,1,.92-.17Zm1.81-.33,1.57-.29Zm2.23-.41.54-.1Zm1-.18.3-.05Zm173-4.06ZM304.56,224l.11-.28Zm.21-.53.07-.18Zm.26-.68.1-.27Zm.21-.54.21-.55Zm.42-1.1v0Zm.2-.52.19-.48Zm.36-.93q.07-.21.15-.39Zm.21-.55.06-.16Zm.16-.42.07-.18Z"/><path class="cls-4" d="M281.67,240.52Z"/><path class="cls-4" d="M311.5,236.21c-1.79-.34-3.73-.81-5.74-1.36A10.17,10.17,0,0,0,311.5,236.21Z"/><path class="cls-4" d="M317.47,237.33l.21,0Z"/><path class="cls-4" d="M317.68,237.36l.19,0Z"/><path class="cls-4" d="M318.55,237.53Z"/><path class="cls-4" d="M317,237.24l.48.09Z"/><path class="cls-4" d="M317.87,237.4l.32.06Z"/><path class="cls-4" d="M318.42,237.5l.13,0Z"/><path class="cls-4" d="M318.19,237.46l.23,0Z"/></g><g id="Layer_1" data-name="Layer 1"><path class="cls-5" d="M290.5,263.21c-6-.67-22,5-22,5s9-14,18-14c0,0-9-2-13,0,0,0,9-15,28-6,0,0-2-17-38-18,0,0,10-12,22-10a105,105,0,0,1,23,7s-12-9-14-9c0,0,9-1,15,3s0-2,0-2-7-7-10-7c0,0,11,1,16,4,0,0,3-3-4-11,0,0,6-2,11,5,0,0,2-1,0-10a18,18,0,0,1,7,9s4-5,10-6c0,0-6,6-5,10a26.38,26.38,0,0,1,13-4s-8,5-9,9c0,0,8-5,20,0,0,0-17,4-21,8,0,0,8-5,19,8,0,0-14-5-21-2,0,0,11,2,15,8,0,0-6-4-13-2,0,0,9,3,10,19,0,0-7-11-16-12,0,0,2,6,3,10,0,0-5-6-12-7,0,0,8,8,8,16,0,0-8-12-16-12a33.81,33.81,0,0,1,12,15s-13-9-19-9c0,0,4,0,7,9,0,0-8-5-13-5,0,0,7,7,9,14C310.5,276.21,299.5,264.21,290.5,263.21Z"/><path class="cls-6" d="M205.5,368.21s-14-22-28-9c0,0,4-16,18-17,0,0-1-2-12,0,0,0,1-9,16-9,0,0,3-13-18-16,0,0,6-11,22-4,0,0,6-9-8-18,0,0,10-2,18,10,0,0,4-4-1-13,0,0,9,4,14,18,0,0,12-9,23-3,0,0-14,5-16,9a27.05,27.05,0,0,1,21,4s-19,1-24,4c0,0,11-1,20,6,0,0-20,0-26,5,0,0,18,0,28,13,0,0-22-6-30-2,0,0,11,0,19,12C241.5,358.21,214.5,359.21,205.5,368.21Z"/><path class="cls-7" d="M223.5,164.21s9.12-24.43,20-14.33c0,0-3.11-12.43-14-13.21,0,0,.78-1.55,9.33,0,0,0-4.68-10.46-16.34-10.46,0,0,1.57-6.64,17.89-9,0,0-4.66-8.55-17.1-3.11,0,0-4.66-7,6.22-14,0,0-7.77-1.55-14,7.77,0,0-3.11-3.1.78-10.1,0,0-4.91-.48-8.8,10.4,0,0-11.41-3.4-20,1.26,0,0,10.88,3.88,12.44,7a21,21,0,0,0-16.32,3.11s14.76.78,18.65,3.11a24.2,24.2,0,0,0-15.54,4.66s15.54,0,20.2,3.89c0,0-14,0-21.76,10.1,0,0,17.1-4.66,23.32-1.55,0,0-8.55,0-14.77,9.32C193.76,149.1,217.5,137.21,223.5,164.21Z"/><path class="cls-5" d="M119.5,108.21s-4,9-4,13c0,0,13-16,24-13,0,0,0-18,5-19,0,0-6,1-8,3s2-11,12-9c0,0-18,2-21,8,0,0-6-5-7-10,0,0,0,13,1,17,0,0-8-6-14-4,0,0,9,5,10,7,0,0-14,7-15,14C102.5,115.21,107.5,107.21,119.5,108.21Z"/><path class="cls-7" d="M152.34,201c6-.66,22,5,22,5s-9-14-18-14c0,0,9-2,13,0,0,0-9-15-28-6,0,0,2-17,38-18,0,0-7.84-5.74-20.84-4.74-3.09.23-19,8-19,8S146.34,156,148.34,156c0,0-9-1-15,3s0-2,0-2,7-7,10-7c0,0-11,1-16,4,0,0-3-3,4-11,0,0-6-2-11,5,0,0-2-1,0-10a18,18,0,0,0-7,9s-4-5-10-6c0,0,6,6,5,10a26.38,26.38,0,0,0-13-4s8,5,9,9c0,0-8-5-20,0,0,0,17,4,21,8,0,0-8-5-19,8,0,0,14-5,21-2,0,0-11,2-15,8,0,0,6-4,13-2,0,0-9,3-10,19,0,0,7-11,16-12,0,0-2,6-3,10,0,0,5-6,12-7,0,0-8,8-8,16,0,0,8-12,16-12a33.81,33.81,0,0,0-12,15s13-9,19-9c0,0-4,0-7,9,0,0,8-5,13-5,0,0-7,7-9,14C132.34,214,143.34,202,152.34,201Z"/><path class="cls-5" d="M288.4,70.4s-6.14-7.71-9.68-9.55c0,0,8.18,18.92.44,27.29,0,0,16,8.31,14.55,13.21,0,0,1.88-5.79,1-8.48s8.83,6.85,2.44,14.8c0,0,6.54-16.89,2.6-22.32,0,0,7.21-3,12.11-1.6,0,0-11.53-6-15.54-7,0,0,9-4.32,10-10.57,0,0-8.59,5.67-10.83,5.64,0,0,.26-15.65-5.49-19.77C290,52.09,294.83,60.22,288.4,70.4Z"/><path class="cls-6" d="M91.5,329.21s-16-3-24,4c0,0-1-11,12-12,0,0-16-3-29,9,0,0,7-19,24-19,0,0-2-7-13-7,0,0,13-8,25,0,0,0-7-13-16-17,0,0,17-2,24,9,0,0-12-20,16-20,0,0-8,6-7,19,0,0,1-6,21-6,0,0-10,4-17,16,0,0,21-3,33,0,0,0-23,5-27,12l-7,10S94.5,319.21,91.5,329.21Z"/><path class="cls-7" d="M274.5,172.21s2-1-2-14c0,0,3,1,6,7a67.63,67.63,0,0,0-6-15s5,1,8,7a15.7,15.7,0,0,0-4-17s5,1,8,8c0,0,6,0,0-8,0,0,8,4,10,10,0,0,7,0,8-12,0,0,2,10,0,15,0,0,11-1,15,2a47.75,47.75,0,0,0-12,4s5,7,5,21c0,0-6-9-12-10,0,0,2,2,2,10a14.34,14.34,0,0,0-10-6s5,1,4,9C294.5,183.21,286.5,168.21,274.5,172.21Z"/><path class="cls-7" d="M226.49,69.18s-.62-2.15-14.13-.53c0,0,1.52-2.78,8-4.66a67.51,67.51,0,0,0-15.83,3.23s1.88-4.74,8.32-6.62a15.7,15.7,0,0,0-17.45.9s1.88-4.75,9.3-6.45c0,0,1.08-5.9-7.87-1.43,0,0,5.37-7.15,11.63-8,0,0,1.25-6.89-10.38-10,0,0,10.19-.19,14.76,2.67,0,0,1-11,4.64-14.4a48,48,0,0,0,1.8,12.52s7.78-3.67,21.55-1.17c0,0-9.92,4.3-12,10,0,0,2.33-1.61,10.2-.19a14.34,14.34,0,0,0-7.69,8.77s1.87-4.74,9.57-2.33C240.89,51.46,224.7,56.66,226.49,69.18Z"/><path class="cls-6" d="M343,296.19S335.3,290,331.44,289c0,0,12.07,16.71,6.32,26.55,0,0,17.38,4.68,17.05,9.77,0,0,.59-6.06-.82-8.51s10.1,4.79,5.57,13.93c0,0,2.75-17.9-2.27-22.36,0,0,6.39-4.49,11.48-4.16,0,0-12.56-3.38-16.68-3.45,0,0,7.87-6.17,7.5-12.48,0,0-7.17,7.39-9.36,7.84,0,0-3.12-15.34-9.62-18.13C340.61,278,347,284.86,343,296.19Z"/><path class="cls-8" d="M93,258.85s-.62-2.14-14.13-.53c0,0,1.52-2.77,8-4.65A67.8,67.8,0,0,0,71,256.89s1.88-4.74,8.32-6.62a15.72,15.72,0,0,0-17.45.9s1.88-4.74,9.3-6.44c0,0,1.08-5.9-7.87-1.43,0,0,5.37-7.16,11.63-8.05,0,0,1.25-6.89-10.38-10,0,0,10.19-.18,14.76,2.68,0,0,1-11,4.64-14.4A48,48,0,0,0,85.73,226s7.78-3.67,21.55-1.17c0,0-9.92,4.3-12,10,0,0,2.33-1.61,10.2-.18a14.34,14.34,0,0,0-7.69,8.77s1.87-4.74,9.57-2.33C107.38,241.14,91.19,246.33,93,258.85Z"/><path class="cls-8" d="M200.37,248.53s-.71-13.49,4.25-16.32c0,0,2.84,15.61,3.55,16.32h0S211,235,216.69,235c0,0-4.26,14.91-1.42,17.75,0,0,3.55-5.68,12.77-4.26,0,0-14.19,10.64-14.19,14.9,0,0,5-6.39,14.19,3.55,0,0-19.87,0-23.42,9.23,0,0-15.61-8.52-24.13-9.23,0,0-.7-5,8.52-3.55,0,0,0-7.8-8.52-7.8,0,0,8.52-3.55,13.49,0,0,0-5.68-9.23-10.65-10.65C183.33,245,187.59,240,200.37,248.53Z"/><path class="cls-8" d="M309.09,364.55s1.69-1.46-5.39-13.07c0,0,3.15.22,7.54,5.3a68,68,0,0,0-9.52-13.06s5.09-.26,9.48,4.81A15.69,15.69,0,0,0,303.13,333s5.09-.26,9.73,5.78c0,0,5.81-1.48-2-7.75,0,0,8.74,1.9,12.16,7.22,0,0,6.78-1.73,4.79-13.6,0,0,4.41,9.19,3.7,14.53,0,0,10.41-3.68,15-1.76a47.63,47.63,0,0,0-10.64,6.84s6.57,5.54,10,19.11c0,0-8-7.24-14.1-6.73,0,0,2.44,1.45,4.41,9.2a14.34,14.34,0,0,0-11.17-3.34s5.09-.27,6.1,7.73C331.19,370.27,319.73,357.71,309.09,364.55Z"/></g></svg>